<svg id="Capa_1" enable-background="new 0 0 497 497" height="512" viewBox="0 0 497 497" width="512" xmlns="http://www.w3.org/2000/svg"><g><path d="m45.303 209.014c0-115.251 93.763-209.014 209.013-209.014s209.014 93.763 209.014 209.014z" fill="#ffb5ec"/><path d="m463.33 209.014c0 154.785-104.955 217.69-104.955 217.69h-208.117s-104.955-62.905-104.955-217.69z" fill="#ffb5ec"/><path d="m150.42 74.792-27.878-27.878c-47.098 38.352-77.239 96.766-77.239 162.1h72.327c-.132-3.363-.209-6.743-.209-10.144 0-45.974 12.171-88.671 32.999-124.078z" fill="#ffa2e7"/><path d="m310.151 420.585c-103.486 0-187.911-93.831-192.521-211.572h-72.327c0 154.785 104.955 217.69 104.955 217.69z" fill="#ffa2e7"/><circle cx="427.539" cy="219.24" fill="#ffcabd" r="48.913"/><path d="m325.594 366.939h-142.555s-59.023 40.211-59.023 130.061h46.765l83.535-19.268 83.536 19.268h46.765c0-89.85-59.023-130.061-59.023-130.061z" fill="#ffd3bc"/><path d="m326.214 106.286c-9.508-10.221-25.433-10.82-35.828-1.504-87.947 78.816-204.901 65.746-204.992 65.736-2.81 12.382-4.3 25.264-4.3 38.496 0 95.668 77.554 173.223 173.223 173.223s173.223-77.554 173.223-173.223c0-13.232-1.49-26.115-4.3-38.497-49.886-20.381-80.388-46.346-97.026-64.231z" fill="#ffd8d2"/><path d="m265.673 433.683c-7.205 4.542-11.357 8.467-11.357 8.467s-4.152-3.925-11.357-8.467c-41.09-25.904-91.867 16.496-73.065 61.283.283.675.579 1.353.887 2.035h167.07c.308-.681.603-1.36.887-2.035 18.802-44.788-31.975-87.187-73.065-61.283z" fill="#ff889e"/><path d="m36.539 69.351c-3.394-8.596-5.068-17.714-5.006-26.826.11-16.131 13.058-29.079 29.189-29.189 9.112-.062 18.23 1.612 26.826 5.006l29.874 23.001-32.122 57.873z" fill="#f9496e"/><path d="m82.755 64.555c-3.434-20.536.782-37.604 6.437-50.127 5.905-13.101 23.12-16.207 33.275-6.041l4.465 4.454c23.8 23.8 31.495 57.585 23.12 87.856z" fill="#ff748f"/><path d="m82.755 64.555c-5.123-.861-10.03-1.247-14.711-1.247-14.065 0-26.021 3.445-35.417 7.684-13.101 5.905-16.207 23.12-6.041 33.286l4.454 4.454c23.789 23.789 57.573 31.495 87.845 23.12.076-.021.152-.042.227-.063 14.931-4.171 26.699-15.935 30.876-30.865.021-.076.042-.152.063-.228-24.966-22.62-47.712-32.877-67.296-36.141z" fill="#ff889e"/><path d="m185.612 368.065c-41.708-40.67-68.191-101.37-68.191-169.195 0-9.441.517-18.743 1.512-27.874-20.532.971-33.51-.475-33.54-.479-.002.008-.003.015-.005.023-1.359-.135-2.782-.213-4.295-.213-27.014 0-48.913 21.899-48.913 48.913s21.899 48.913 48.913 48.913c3.781 0 7.054-.443 9.914-1.255 16.108 45.432 50.635 82.147 94.605 101.167z" fill="#ffcabd"/><g><g><g><ellipse cx="150.258" cy="238.392" fill="#ff9db0" rx="38.396" ry="30.576"/></g><g><ellipse cx="358.375" cy="238.392" fill="#ff9db0" rx="38.396" ry="30.576"/></g></g></g><g><g><path d="m172.635 216.459c-4.142 0-7.5-3.357-7.5-7.5v-15.695c0-4.143 3.358-7.5 7.5-7.5s7.5 3.357 7.5 7.5v15.695c0 4.142-3.358 7.5-7.5 7.5z" fill="#423e4f"/></g><g><path d="m335.998 216.459c-4.142 0-7.5-3.357-7.5-7.5v-15.695c0-4.143 3.358-7.5 7.5-7.5s7.5 3.357 7.5 7.5v15.695c0 4.142-3.357 7.5-7.5 7.5z" fill="#423e4f"/></g><g><path d="m254.316 225.802c-10.42 0-20.331-4.514-27.189-12.383-2.721-3.123-2.396-7.86.727-10.582 3.123-2.721 7.859-2.396 10.582.727 4.009 4.6 9.797 7.238 15.88 7.238s11.872-2.639 15.881-7.238c2.722-3.124 7.459-3.448 10.582-.727 3.123 2.722 3.448 7.46.726 10.582-6.859 7.87-16.768 12.383-27.189 12.383z" fill="#423e4f"/></g></g><path d="m205.366 460.039c0-11.829 1.954-23.227 5.564-33.93-30.442 3.474-55.039 35.499-41.035 68.857.284.675.579 1.353.887 2.035h41.224c-4.297-11.573-6.64-24.009-6.64-36.962z" fill="#ff748f"/></g></svg>